<svg width="24" height="24" viewBox="0 0 24 24" fill="none" xmlns="http://www.w3.org/2000/svg">
<rect width="24" height="24" fill="black"/>
<path fill-rule="evenodd" clip-rule="evenodd" d="M20 7V8V11V12.058L13.435 18.6103C12.9459 18.1094 12.2616 17.8 11.5 17.8C10 17.8 8.8 19 8.8 20.5V22H5C4.46957 22 3.96086 21.7893 3.58579 21.4142C3.21071 21.0391 3 20.5304 3 20V16.2H4.5C6 16.2 7.2 15 7.2 13.5C7.2 12 6 10.8 4.5 10.8H3V7C3 6.46957 3.21071 5.96086 3.58579 5.58579C3.96086 5.21071 4.46957 5 5 5H9V3.5C9 2.83696 9.26339 2.20107 9.73223 1.73223C10.2011 1.26339 10.837 1 11.5 1C12.163 1 12.7989 1.26339 13.2678 1.73223C13.7366 2.20107 14 2.83696 14 3.5V5H18C18.5304 5 19.0391 5.21071 19.4142 5.58579C19.7893 5.96086 20 6.46957 20 7Z" fill="white"/>
<path d="M14.2929 22L20.2929 16" stroke="white" stroke-width="0.5" stroke-linecap="round"/>
</svg>
