<?xml version="1.0" encoding="UTF-8"?>
<svg version="1.1" xmlns="http://www.w3.org/2000/svg" width="200" height="200">
<path d="M0 0 C1.15220032 -0.0071553 2.30440063 -0.01431061 3.49151611 -0.02168274 C4.75182648 -0.02437164 6.01213684 -0.02706055 7.31063843 -0.02983093 C8.65459365 -0.03609924 9.99854715 -0.04274636 11.34249878 -0.04974365 C15.75292767 -0.07074764 20.16335676 -0.08114449 24.57382202 -0.09111023 C26.0953816 -0.09515954 27.616941 -0.09927651 29.13850021 -0.10346031 C36.29004222 -0.12250611 43.44157395 -0.13673688 50.59313643 -0.14507228 C58.83161158 -0.15483448 67.06981733 -0.18112975 75.30819762 -0.22157317 C81.68630335 -0.25180281 88.06433216 -0.26654773 94.4425081 -0.26985329 C98.2468547 -0.27219651 102.0509133 -0.28106086 105.85518265 -0.30631447 C109.43891351 -0.32971986 113.02216933 -0.33377905 116.60595703 -0.32355309 C118.53395682 -0.32282737 120.46193315 -0.3418318 122.38983154 -0.36161804 C134.3294461 -0.2907044 144.24476461 3.57736323 153.06600952 11.73701477 C159.54651836 18.76307665 163.45369445 27.25823506 163.49443054 36.7999115 C163.5051635 38.52821198 163.5051635 38.52821198 163.51611328 40.29142761 C163.51880219 41.55173798 163.52149109 42.81204834 163.52426147 44.11054993 C163.53052978 45.45450515 163.5371769 46.79845865 163.54417419 48.14241028 C163.56517819 52.55283917 163.57557503 56.96326825 163.58554077 61.37373352 C163.58959008 62.8952931 163.59370705 64.4168525 163.59789085 65.93841171 C163.61693665 73.08995371 163.63116742 80.24148545 163.63950282 87.39304793 C163.64926502 95.63152308 163.67556029 103.86972883 163.71600372 112.10810912 C163.74623335 118.48621485 163.76097827 124.86424366 163.76428384 131.2424196 C163.76662705 135.0467662 163.77549141 138.8508248 163.80074501 142.65509415 C163.8241504 146.23882501 163.82820959 149.82208083 163.81798363 153.40586853 C163.81725791 155.33386832 163.83626234 157.26184465 163.85604858 159.18974304 C163.78513495 171.1293576 159.91706731 181.04467611 151.75741577 189.86592102 C144.73135389 196.34642986 136.23619549 200.25360595 126.69451904 200.29434204 C125.54231873 200.30149734 124.39011841 200.30865265 123.20300293 200.31602478 C121.94269257 200.31871368 120.6823822 200.32140259 119.38388062 200.32417297 C118.03992539 200.33044128 116.69597189 200.3370884 115.35202026 200.34408569 C110.94159137 200.36508969 106.53116229 200.37548653 102.12069702 200.38545227 C100.59913744 200.38950158 99.07757804 200.39361855 97.55601883 200.39780235 C90.40447683 200.41684815 83.25294509 200.43107892 76.10138261 200.43941432 C67.86290746 200.44917652 59.62470171 200.47547179 51.38632143 200.51591522 C45.0082157 200.54614485 38.63018688 200.56088977 32.25201094 200.56419533 C28.44766434 200.56653855 24.64360574 200.57540291 20.8393364 200.60065651 C17.25560553 200.6240619 13.67234972 200.62812109 10.08856201 200.61789513 C8.16056223 200.61716941 6.23258589 200.63617384 4.3046875 200.65596008 C-7.63492706 200.58504644 -17.55024557 196.71697881 -26.37149048 188.55732727 C-32.85199932 181.53126539 -36.75917541 173.03610699 -36.7999115 163.49443054 C-36.8070668 162.34223022 -36.81422211 161.19002991 -36.82159424 160.00291443 C-36.82428314 158.74260406 -36.82697205 157.4822937 -36.82974243 156.18379211 C-36.83601074 154.83983689 -36.84265786 153.49588339 -36.84965515 152.15193176 C-36.87065914 147.74150287 -36.88105599 143.33107379 -36.89102173 138.92060852 C-36.89507104 137.39904894 -36.89918801 135.87748954 -36.90337181 134.35593033 C-36.92241761 127.20438833 -36.93664838 120.05285659 -36.94498378 112.90129411 C-36.95474598 104.66281896 -36.98104125 96.42461321 -37.02148467 88.18623292 C-37.05171431 81.8081272 -37.06645923 75.43009838 -37.06976479 69.05192244 C-37.07210801 65.24757584 -37.08097236 61.44351724 -37.10622597 57.63924789 C-37.12963136 54.05551703 -37.13369055 50.47226121 -37.12346458 46.88847351 C-37.12273887 44.96047372 -37.1417433 43.03249739 -37.16152954 41.104599 C-37.0906159 29.16498444 -33.22254827 19.24966593 -25.06289673 10.42842102 C-18.03683485 3.94791218 -9.54167644 0.04073609 0 0 Z " fill="#FA0F00" transform="translate(36.652740478515625,-0.1471710205078125)"/>
<path d="M0 0 C12.54 0 25.08 0 38 0 C34.62492145 10.12523566 34.62492145 10.12523566 33.15332031 13.6730957 C32.82105942 14.47839218 32.48879852 15.28368866 32.14646912 16.11338806 C31.79391556 16.95897781 31.441362 17.80456757 31.078125 18.67578125 C30.70079727 19.58771744 30.32346954 20.49965363 29.93470764 21.43922424 C28.7094615 24.39823224 27.47980842 27.35538562 26.25 30.3125 C25.40104591 32.36008935 24.55233403 34.40777915 23.70385742 36.45556641 C21.14049897 42.63895713 18.57094282 48.81975958 16 55 C15.60468079 55.95062317 15.20936157 56.90124634 14.80206299 57.88067627 C10.20963281 68.92390028 5.60968394 79.96396666 1 91 C0.67 91 0.34 91 0 91 C0 60.97 0 30.94 0 0 Z " fill="#FEFDFD" transform="translate(48,54)"/>
<path d="M0 0 C12.54 0 25.08 0 38 0 C38 30.03 38 60.06 38 91 C36.22251959 88.33377938 35.03239101 85.95267093 33.77734375 83.0234375 C33.10578247 81.45879761 33.10578247 81.45879761 32.4206543 79.86254883 C31.93121338 78.71165771 31.44177246 77.5607666 30.9375 76.375 C30.4216333 75.16674561 29.9057666 73.95849121 29.37426758 72.71362305 C22.4502508 56.45782273 15.71203464 40.12281219 8.97802734 23.78759766 C7.6381285 20.53877681 6.28847329 17.29423412 4.93212891 14.05224609 C4.60473221 13.26637619 4.27733551 12.48050629 3.9400177 11.67082214 C3.32017801 10.18324863 2.69766155 8.69678675 2.07206726 7.21162415 C0 2.22537725 0 2.22537725 0 0 Z " fill="#FEFDFD" transform="translate(114,54)"/>
<path d="M0 0 C0.66 0 1.32 0 2 0 C6.05604287 9.44693579 10.10785393 18.89566565 14.15174866 28.34780884 C16.02145346 32.71732935 17.89685109 37.08432665 19.77734375 41.44921875 C20.49773967 43.1326654 21.21783085 44.81624252 21.9375 46.5 C22.26041016 47.24419189 22.58332031 47.98838379 22.91601562 48.75512695 C24.15924159 51.67959756 25 53.7859328 25 57 C19.72 57 14.44 57 9 57 C8.01 54.586875 7.02 52.17375 6 49.6875 C5.68675781 48.93170654 5.37351562 48.17591309 5.05078125 47.3972168 C3.85629156 44.44772788 3 42.2102388 3 39 C-3.27 39 -9.54 39 -16 39 C-14.11650703 33.34952108 -12.25002265 27.97130326 -9.86328125 22.55859375 C-9.57897751 21.90544693 -9.29467377 21.25230011 -9.00175476 20.57936096 C-8.10894038 18.53047805 -7.21083673 16.48396669 -6.3125 14.4375 C-5.6995152 13.03335787 -5.08688215 11.62906213 -4.47460938 10.22460938 C-2.98712342 6.81462598 -1.49489052 3.40674496 0 0 Z " fill="#FEF8F8" transform="translate(99,89)"/>
</svg>
